<svg width="20" height="20" viewBox="0 0 20 20" fill="none" xmlns="http://www.w3.org/2000/svg">
<path d="M11.6667 7.75V10.1667H13.8333C14 10.1667 14.0833 10.3333 14.0833 10.5L13.75 12.0833C13.75 12.1667 13.5833 12.25 13.5 12.25H11.6667V18.3333H9.16667V12.3333H7.75C7.58333 12.3333 7.5 12.25 7.5 12.0833V10.5C7.5 10.3333 7.58333 10.25 7.75 10.25H9.16667V7.5C9.16667 6.08333 10.25 5 11.6667 5H13.9167C14.0833 5 14.1667 5.08333 14.1667 5.25V7.25C14.1667 7.41667 14.0833 7.5 13.9167 7.5H11.9167C11.75 7.5 11.6667 7.58333 11.6667 7.75Z" stroke="#686163" stroke-width="1.5" stroke-miterlimit="10" stroke-linecap="round"/>
<path d="M12.5 18.3333H7.5C3.33333 18.3333 1.66667 16.6667 1.66667 12.5V7.49999C1.66667 3.33332 3.33333 1.66666 7.5 1.66666H12.5C16.6667 1.66666 18.3333 3.33332 18.3333 7.49999V12.5C18.3333 16.6667 16.6667 18.3333 12.5 18.3333Z" stroke="#686163" stroke-width="1.5" stroke-linecap="round" stroke-linejoin="round"/>
</svg>
