<svg width="20" height="20" viewBox="0 0 20 20" fill="none" xmlns="http://www.w3.org/2000/svg">
<path d="M7.5 18.3333H12.5C16.6667 18.3333 18.3333 16.6667 18.3333 12.5V7.49999C18.3333 3.33332 16.6667 1.66666 12.5 1.66666H7.5C3.33333 1.66666 1.66667 3.33332 1.66667 7.49999V12.5C1.66667 16.6667 3.33333 18.3333 7.5 18.3333Z" stroke="#686163" stroke-width="1.5" stroke-linecap="round" stroke-linejoin="round"/>
<path d="M10 12.9167C11.6108 12.9167 12.9167 11.6108 12.9167 10C12.9167 8.38918 11.6108 7.08334 10 7.08334C8.38917 7.08334 7.08333 8.38918 7.08333 10C7.08333 11.6108 8.38917 12.9167 10 12.9167Z" stroke="#686163" stroke-width="1.5" stroke-linecap="round" stroke-linejoin="round"/>
<path d="M14.6968 5.83332H14.7064" stroke="#686163" stroke-width="2" stroke-linecap="round" stroke-linejoin="round"/>
</svg>
