<svg width="20" height="21" viewBox="0 0 20 21" fill="none" xmlns="http://www.w3.org/2000/svg">
<path d="M11.0276 0.5C12.1526 0.503 12.7236 0.509 13.2166 0.523L13.4106 0.53C13.6346 0.538 13.8556 0.548 14.1226 0.56C15.1866 0.61 15.9126 0.778 16.5496 1.025C17.2096 1.279 17.7656 1.623 18.3216 2.178C18.8301 2.6779 19.2236 3.28259 19.4746 3.95C19.7216 4.587 19.8896 5.313 19.9396 6.378C19.9516 6.644 19.9616 6.865 19.9696 7.09L19.9756 7.284C19.9906 7.776 19.9966 8.347 19.9986 9.472L19.9996 10.218V11.528C20.0021 12.2574 19.9944 12.9868 19.9766 13.716L19.9706 13.91C19.9626 14.135 19.9526 14.356 19.9406 14.622C19.8906 15.687 19.7206 16.412 19.4746 17.05C19.2243 17.7178 18.8307 18.3226 18.3216 18.822C17.8216 19.3303 17.2169 19.7238 16.5496 19.975C15.9126 20.222 15.1866 20.39 14.1226 20.44C13.8853 20.4512 13.648 20.4612 13.4106 20.47L13.2166 20.476C12.7236 20.49 12.1526 20.497 11.0276 20.499L10.2816 20.5H8.9726C8.24286 20.5025 7.51312 20.4949 6.7836 20.477L6.5896 20.471C6.35221 20.462 6.11487 20.4517 5.8776 20.44C4.8136 20.39 4.0876 20.222 3.4496 19.975C2.78227 19.7244 2.17782 19.3308 1.6786 18.822C1.16965 18.3223 0.775825 17.7176 0.524601 17.05C0.277601 16.413 0.1096 15.687 0.0596004 14.622C0.0484592 14.3847 0.0384591 14.1474 0.0296004 13.91L0.0246005 13.716C0.00617258 12.9868 -0.00216165 12.2574 -0.000399562 11.528V9.472C-0.00319053 8.7426 0.00414359 8.0132 0.0216005 7.284L0.0286005 7.09C0.0366005 6.865 0.0466005 6.644 0.0586005 6.378C0.1086 5.313 0.2766 4.588 0.5236 3.95C0.774714 3.2819 1.16932 2.67702 1.6796 2.178C2.17869 1.66947 2.78274 1.27599 3.4496 1.025C4.0876 0.778 4.8126 0.61 5.8776 0.56C6.1436 0.548 6.3656 0.538 6.5896 0.53L6.7836 0.524C7.51279 0.506233 8.2422 0.498565 8.9716 0.501L11.0276 0.5ZM9.9996 5.5C8.67352 5.5 7.40175 6.02678 6.46407 6.96447C5.52638 7.90215 4.9996 9.17392 4.9996 10.5C4.9996 11.8261 5.52638 13.0979 6.46407 14.0355C7.40175 14.9732 8.67352 15.5 9.9996 15.5C11.3257 15.5 12.5975 14.9732 13.5351 14.0355C14.4728 13.0979 14.9996 11.8261 14.9996 10.5C14.9996 9.17392 14.4728 7.90215 13.5351 6.96447C12.5975 6.02678 11.3257 5.5 9.9996 5.5ZM9.9996 7.5C10.3936 7.49993 10.7837 7.57747 11.1477 7.72817C11.5117 7.87887 11.8424 8.0998 12.1211 8.37833C12.3997 8.65686 12.6207 8.98754 12.7715 9.35149C12.9224 9.71544 13 10.1055 13.0001 10.4995C13.0002 10.8935 12.9226 11.2836 12.7719 11.6476C12.6212 12.0116 12.4003 12.3423 12.1218 12.621C11.8432 12.8996 11.5126 13.1206 11.1486 13.2714C10.7847 13.4223 10.3946 13.4999 10.0006 13.5C9.20495 13.5 8.44189 13.1839 7.87928 12.6213C7.31667 12.0587 7.0006 11.2956 7.0006 10.5C7.0006 9.70435 7.31667 8.94129 7.87928 8.37868C8.44189 7.81607 9.20495 7.5 10.0006 7.5M15.2506 4C14.9191 4 14.6011 4.1317 14.3667 4.36612C14.1323 4.60054 14.0006 4.91848 14.0006 5.25C14.0006 5.58152 14.1323 5.89946 14.3667 6.13388C14.6011 6.3683 14.9191 6.5 15.2506 6.5C15.5821 6.5 15.9001 6.3683 16.1345 6.13388C16.3689 5.89946 16.5006 5.58152 16.5006 5.25C16.5006 4.91848 16.3689 4.60054 16.1345 4.36612C15.9001 4.1317 15.5821 4 15.2506 4Z" fill="#006696"/>
</svg>
