<svg width="22" height="21" viewBox="0 0 22 21" fill="none" xmlns="http://www.w3.org/2000/svg">
<path fill-rule="evenodd" clip-rule="evenodd" d="M3.5 0C2.70435 0 1.94129 0.316071 1.37868 0.87868C0.816071 1.44129 0.5 2.20435 0.5 3V18C0.5 18.7956 0.816071 19.5587 1.37868 20.1213C1.94129 20.6839 2.70435 21 3.5 21H18.5C19.2956 21 20.0587 20.6839 20.6213 20.1213C21.1839 19.5587 21.5 18.7956 21.5 18V3C21.5 2.20435 21.1839 1.44129 20.6213 0.87868C20.0587 0.316071 19.2956 0 18.5 0H3.5ZM5.153 6.4455C5.6284 6.4455 6.08433 6.25665 6.42049 5.92049C6.75665 5.58433 6.9455 5.1284 6.9455 4.653C6.9455 4.1776 6.75665 3.72167 6.42049 3.38551C6.08433 3.04935 5.6284 2.8605 5.153 2.8605C4.6776 2.8605 4.22167 3.04935 3.88551 3.38551C3.54935 3.72167 3.3605 4.1776 3.3605 4.653C3.3605 5.1284 3.54935 5.58433 3.88551 5.92049C4.22167 6.25665 4.6776 6.4455 5.153 6.4455ZM6.653 17.7195V7.851H3.653V17.7195H6.653ZM8.645 7.851H11.645V9.1725C12.0875 8.4795 13.0595 7.5465 14.867 7.5465C17.024 7.5465 18.1955 8.976 18.1955 11.6955C18.1955 11.826 18.2075 12.4215 18.2075 12.4215V17.718H15.2075V12.423C15.2075 11.6955 15.0545 10.266 13.4375 10.266C11.819 10.266 11.6825 12.063 11.645 13.239V17.718H8.645V7.851Z" fill="#006696"/>
</svg>
