<svg width="44" height="44" viewBox="0 0 44 44" fill="none" xmlns="http://www.w3.org/2000/svg">
<rect x="0.75" y="0.75" width="42.5" height="42.5" rx="8.25" stroke="#DDDADB" stroke-width="1.5"/>
<path d="M29 13C29.5304 13 30.0391 13.2107 30.4142 13.5858C30.7893 13.9609 31 14.4696 31 15V29C31 29.5304 30.7893 30.0391 30.4142 30.4142C30.0391 30.7893 29.5304 31 29 31H15C14.4696 31 13.9609 30.7893 13.5858 30.4142C13.2107 30.0391 13 29.5304 13 29V15C13 14.4696 13.2107 13.9609 13.5858 13.5858C13.9609 13.2107 14.4696 13 15 13H29ZM28.5 28.5V23.2C28.5 22.3354 28.1565 21.5062 27.5452 20.8948C26.9338 20.2835 26.1046 19.94 25.24 19.94C24.39 19.94 23.4 20.46 22.92 21.24V20.13H20.13V28.5H22.92V23.57C22.92 22.8 23.54 22.17 24.31 22.17C24.6813 22.17 25.0374 22.3175 25.2999 22.5801C25.5625 22.8426 25.71 23.1987 25.71 23.57V28.5H28.5ZM16.88 18.56C17.3256 18.56 17.7529 18.383 18.0679 18.0679C18.383 17.7529 18.56 17.3256 18.56 16.88C18.56 15.95 17.81 15.19 16.88 15.19C16.4318 15.19 16.0019 15.3681 15.685 15.685C15.3681 16.0019 15.19 16.4318 15.19 16.88C15.19 17.81 15.95 18.56 16.88 18.56ZM18.27 28.5V20.13H15.5V28.5H18.27Z" fill="#686163"/>
</svg>
