<svg width="20" height="20" viewBox="0 0 20 20" fill="none" xmlns="http://www.w3.org/2000/svg">
<path d="M16.6667 0C17.5507 0 18.3986 0.35119 19.0237 0.976311C19.6488 1.60143 20 2.44928 20 3.33333V16.6667C20 17.5507 19.6488 18.3986 19.0237 19.0237C18.3986 19.6488 17.5507 20 16.6667 20H3.33333C2.44928 20 1.60143 19.6488 0.976311 19.0237C0.35119 18.3986 0 17.5507 0 16.6667V3.33333C0 2.44928 0.35119 1.60143 0.976311 0.976311C1.60143 0.35119 2.44928 0 3.33333 0H16.6667ZM16.6667 2.22222H3.33333C3.03865 2.22222 2.75603 2.33929 2.54766 2.54766C2.33929 2.75603 2.22222 3.03865 2.22222 3.33333V16.6667C2.22222 16.9614 2.33929 17.244 2.54766 17.4523C2.75603 17.6607 3.03865 17.7778 3.33333 17.7778H16.6667C16.9614 17.7778 17.244 17.6607 17.4523 17.4523C17.6607 17.244 17.7778 16.9614 17.7778 16.6667V3.33333C17.7778 3.03865 17.6607 2.75603 17.4523 2.54766C17.244 2.33929 16.9614 2.22222 16.6667 2.22222ZM5.55556 7.77778C5.8277 7.77781 6.09038 7.87773 6.29375 8.05857C6.49712 8.23942 6.62705 8.48861 6.65889 8.75889L6.66667 8.88889V14.4444C6.66635 14.7276 6.55791 15 6.3635 15.206C6.16909 15.4119 5.90339 15.5358 5.62067 15.5524C5.33796 15.569 5.05958 15.477 4.84241 15.2953C4.62524 15.1135 4.48567 14.8557 4.45222 14.5744L4.44444 14.4444V8.88889C4.44444 8.5942 4.56151 8.31159 4.76988 8.10322C4.97826 7.89484 5.26087 7.77778 5.55556 7.77778ZM8.88889 6.66667C9.14911 6.66663 9.40108 6.75792 9.60088 6.92463C9.80069 7.09133 9.93564 7.32288 9.98222 7.57889C10.2058 7.44923 10.437 7.3331 10.6744 7.23111C11.4156 6.91445 12.5256 6.74 13.5278 7.05444C14.0533 7.22111 14.5811 7.53222 14.9722 8.06222C15.3222 8.53444 15.5111 9.10889 15.5489 9.75445L15.5556 10V14.4444C15.5552 14.7276 15.4468 15 15.2524 15.206C15.058 15.4119 14.7923 15.5358 14.5096 15.5524C14.2268 15.569 13.9485 15.477 13.7313 15.2953C13.5141 15.1135 13.3746 14.8557 13.3411 14.5744L13.3333 14.4444V10C13.3333 9.63333 13.2444 9.46222 13.1867 9.38333C13.1037 9.28017 12.9895 9.20684 12.8611 9.17445C12.4744 9.05222 11.9178 9.11667 11.5478 9.27444C10.9922 9.51222 10.4833 9.88556 10.1367 10.2311L10 10.3778V14.4444C9.99969 14.7276 9.89125 15 9.69684 15.206C9.50243 15.4119 9.23672 15.5358 8.95401 15.5524C8.67129 15.569 8.39291 15.477 8.17574 15.2953C7.95857 15.1135 7.819 14.8557 7.78556 14.5744L7.77778 14.4444V7.77778C7.77778 7.48309 7.89484 7.20048 8.10322 6.9921C8.31159 6.78373 8.5942 6.66667 8.88889 6.66667ZM5.55556 4.44444C5.85024 4.44444 6.13286 4.56151 6.34123 4.76988C6.5496 4.97826 6.66667 5.26087 6.66667 5.55556C6.66667 5.85024 6.5496 6.13286 6.34123 6.34123C6.13286 6.5496 5.85024 6.66667 5.55556 6.66667C5.26087 6.66667 4.97826 6.5496 4.76988 6.34123C4.56151 6.13286 4.44444 5.85024 4.44444 5.55556C4.44444 5.26087 4.56151 4.97826 4.76988 4.76988C4.97826 4.56151 5.26087 4.44444 5.55556 4.44444Z" fill="#686163"/>
</svg>
