<svg width="44" height="44" viewBox="0 0 44 44" fill="none" xmlns="http://www.w3.org/2000/svg">
<rect x="0.75" y="0.75" width="42.5" height="42.5" rx="8.25" stroke="#DDDADB" stroke-width="1.5"/>
<path d="M32.4591 16C31.6891 16.35 30.8591 16.58 29.9991 16.69C30.8791 16.16 31.5591 15.32 31.8791 14.31C31.0491 14.81 30.1291 15.16 29.1591 15.36C28.3691 14.5 27.2591 14 25.9991 14C23.6491 14 21.7291 15.92 21.7291 18.29C21.7291 18.63 21.7691 18.96 21.8391 19.27C18.2791 19.09 15.1091 17.38 12.9991 14.79C12.6291 15.42 12.4191 16.16 12.4191 16.94C12.4191 18.43 13.1691 19.75 14.3291 20.5C13.6191 20.5 12.9591 20.3 12.3791 20V20.03C12.3791 22.11 13.8591 23.85 15.8191 24.24C15.1898 24.4122 14.5292 24.4362 13.8891 24.31C14.1607 25.1625 14.6926 25.9084 15.4101 26.4429C16.1276 26.9775 16.9945 27.2737 17.8891 27.29C16.3727 28.4904 14.4931 29.1393 12.5591 29.13C12.2191 29.13 11.8791 29.11 11.5391 29.07C13.4391 30.29 15.6991 31 18.1191 31C25.9991 31 30.3291 24.46 30.3291 18.79C30.3291 18.6 30.3291 18.42 30.3191 18.23C31.1591 17.63 31.8791 16.87 32.4591 16Z" fill="#686163"/>
</svg>
