<svg width="446" height="669" viewBox="0 0 446 669" fill="none" xmlns="http://www.w3.org/2000/svg">
<path d="M174 246H282V521H174V246Z" fill="#EFF9FF"/>
<path d="M130.533 417H0L228.003 669V514.324L130.533 417Z" fill="#EFF9FF"/>
<path d="M325.482 417H446L228.012 669V514.324L325.482 417Z" fill="#EFF9FF"/>
<path d="M174 196H282V471H174V196Z" fill="#DEF3FF"/>
<path d="M130.533 367H0L228.003 619V464.324L130.533 367Z" fill="#DEF3FF"/>
<path d="M325.482 367H446L228.012 619V464.324L325.482 367Z" fill="#DEF3FF"/>
<path d="M174 0H282V421.745H174V0Z" fill="#B6E9FF"/>
<path d="M130.533 328.809H0L228.003 554V415.779L130.533 328.809Z" fill="#B6E9FF"/>
<path d="M325.482 328.809H446L228.012 554V415.779L325.482 328.809Z" fill="#B6E9FF"/>
</svg>
