<svg width="1320" height="604" viewBox="0 0 1320 604" fill="none" xmlns="http://www.w3.org/2000/svg">
<path d="M320.91 -613.994L-253.227 341.082M399.118 -617.359L-219.038 410.943M455.08 -583.718L-163.076 444.584M511.042 -550.077L-107.114 478.225M567.004 -516.436L-51.152 511.866M622.966 -482.795L4.80982 545.507M678.928 -449.153L60.7716 579.148M734.889 -415.512L116.734 612.789M790.851 -381.871L172.695 646.43M846.813 -348.23L228.657 680.071M902.775 -314.589L284.619 713.712M958.737 -280.948L340.581 747.353M1014.7 -247.307L396.543 780.994M1070.66 -213.666L452.505 814.635M1126.62 -180.025L508.467 848.276M1182.58 -146.384L564.428 881.918M1238.55 -112.743L620.39 915.559M1294.51 -79.1017L676.352 949.2M1350.47 -45.4606L732.314 982.841M1406.43 -11.8195L788.276 1016.48M1462.39 21.8216L844.238 1050.12M1496.58 91.6816L922.919 1045.97" stroke="#B9F9D7"/>
</svg>
