<svg width="162" height="111" viewBox="0 0 162 111" fill="none" xmlns="http://www.w3.org/2000/svg">
<rect x="2" y="12" width="158" height="97" rx="6" fill="#F1F5F9"/>
<rect x="1" y="1" width="160" height="109" rx="8" fill="white" stroke="#334155" stroke-width="2"/>
<rect x="68" y="6" width="24" height="4" rx="2" fill="#334155"/>
<circle cx="97" cy="8" r="2" fill="#334155"/>
<path d="M81 44.875H84.375M81 51.625H84.375M67.5 58.375H84.375M67.5 65.125H84.375M91.125 44.875H98.7188C100.116 44.875 101.25 46.009 101.25 47.4062V68.5C101.25 69.8427 100.717 71.1303 99.7672 72.0797C98.8178 73.0291 97.5302 73.5625 96.1875 73.5625M91.125 44.875V68.5C91.125 69.8427 91.6584 71.1303 92.6078 72.0797C93.5572 73.0291 94.8448 73.5625 96.1875 73.5625M91.125 44.875V38.9688C91.125 37.5715 89.991 36.4375 88.5938 36.4375H63.2812C61.884 36.4375 60.75 37.5715 60.75 38.9688V68.5C60.75 69.8427 61.2834 71.1303 62.2328 72.0797C63.1822 73.0291 64.4698 73.5625 65.8125 73.5625H96.1875M67.5 44.875H74.25V51.625H67.5V44.875Z" stroke="#006696" stroke-width="1.5" stroke-linecap="round" stroke-linejoin="round"/>
</svg>
