<svg width="162" height="111" viewBox="0 0 162 111" fill="none" xmlns="http://www.w3.org/2000/svg">
<rect x="2" y="12" width="158" height="97" rx="6" fill="#F1F5F9"/>
<rect x="1" y="1" width="160" height="109" rx="8" fill="white" stroke="#334155" stroke-width="2"/>
<rect x="68" y="6" width="24" height="4" rx="2" fill="#334155"/>
<circle cx="97" cy="8" r="2" fill="#334155"/>
<path d="M122.5 88V86H125.5V88H122.5ZM125.9 93.55L124.5 92.1L126.6 90L128.05 91.4L125.9 93.55ZM126.6 84L124.5 81.9L125.9 80.45L128.05 82.6L126.6 84ZM138.5 96L133.75 91.25L132.5 95L129.5 85L139.5 88L135.8 89.3L140.5 94L138.5 96ZM130.5 82V79H132.5V82H130.5ZM136.4 84L134.95 82.6L137.1 80.45L138.5 81.85L136.4 84Z" fill="#686163"/>
<path d="M79.9983 50.5002C84.9689 50.5002 88.9983 46.4708 88.9983 41.5002C88.9983 36.5297 84.9689 32.5002 79.9983 32.5002C75.0277 32.5002 70.9983 36.5297 70.9983 41.5002C70.9983 46.4708 75.0277 50.5002 79.9983 50.5002Z" stroke="#12A758" stroke-width="2"/>
<path d="M97.9991 67.3752C97.9991 72.9665 97.9991 77.5002 79.9991 77.5002C61.9991 77.5002 61.9991 72.9665 61.9991 67.3752C61.9991 61.784 70.0586 57.2502 79.9991 57.2502C89.9396 57.2502 97.9991 61.784 97.9991 67.3752Z" stroke="#12A758" stroke-width="2"/>
</svg>
