<svg xmlns="http://www.w3.org/2000/svg" viewBox="0 0 99.09 18.25"><defs><style>.cls-1{fill:#006696;}.cls-2{fill:#991f1f;}</style></defs><g id="Layer_2" data-name="Layer 2"><g id="Layer_1-2" data-name="Layer 1"><path class="cls-1" d="M49.14,7.42V17.91H45.91V7.42H44.34V4.48h1.57V0h3.23V4.48h1.94V7.42Z"/><path class="cls-1" d="M7.17,18.23A7.08,7.08,0,0,1,0,11.2a7,7,0,0,1,7.08-7A6.92,6.92,0,0,1,13.84,9H10.2A3.24,3.24,0,0,0,7.08,7.13a3.8,3.8,0,0,0-3.83,4,3.9,3.9,0,0,0,3.9,4.1,3.34,3.34,0,0,0,3-1.77h3.64A6.84,6.84,0,0,1,7.17,18.23Z"/><path class="cls-1" d="M24.31,17.91V11.05c0-2.81-.72-3.92-2.61-3.92s-2.84,1-2.84,4v6.81H15.64V0h3.22V5.4a4.8,4.8,0,0,1,3.42-1.26c3.22,0,5.26,1.77,5.26,6.18v7.59Z"/><path class="cls-1" d="M36.46,18.23a7.09,7.09,0,0,1-7.13-7,7.14,7.14,0,0,1,14.28.09A7.11,7.11,0,0,1,36.46,18.23Zm0-11.1a4,4,0,0,0-3.88,4,3.9,3.9,0,1,0,7.78,0A4,4,0,0,0,36.46,7.13Z"/><path class="cls-1" d="M60.6,17.91,56,11.63v6.28H52.8V0H56V10.81l4.29-6.33h3.85l-4.8,6.57,5.58,6.86Z"/><path class="cls-1" d="M75.63,17.91V16.17a5.42,5.42,0,0,1-4.46,2.06,6.65,6.65,0,0,1-6.77-7,6.73,6.73,0,0,1,6.84-7.08,5,5,0,0,1,4.39,2.11V4.48h3V17.91Zm-4-10.78a3.91,3.91,0,0,0-3.93,4.19,3.94,3.94,0,1,0,7.88,0A3.9,3.9,0,0,0,71.58,7.13Z"/><path class="cls-1" d="M84.52,10.45v7.46H81.3V4.48h3V5.79a3,3,0,0,1,2.91-1.62h.25v3.1C85.47,7.32,84.52,8.36,84.52,10.45Z"/><path class="cls-1" d="M89.14,7.42V17.91h3.23V4.58a.4.4,0,0,0-.69-.26L89.24,7.16A.4.4,0,0,0,89.14,7.42Z"/><circle class="cls-2" cx="96.71" cy="15.86" r="2.38"/></g></g></svg>