<svg width="163" height="111" viewBox="0 0 163 111" fill="none" xmlns="http://www.w3.org/2000/svg">
<rect x="2.5" y="12" width="158" height="97" rx="6" fill="#F1F5F9"/>
<rect x="1.5" y="1" width="160" height="109" rx="8" fill="white" stroke="#334155" stroke-width="2"/>
<rect x="68.5" y="6" width="24" height="4" rx="2" fill="#334155"/>
<circle cx="97.5" cy="8" r="2" fill="#334155"/>
<path d="M123 88V86H126V88H123ZM126.4 93.55L125 92.1L127.1 90L128.55 91.4L126.4 93.55ZM127.1 84L125 81.9L126.4 80.45L128.55 82.6L127.1 84ZM139 96L134.25 91.25L133 95L130 85L140 88L136.3 89.3L141 94L139 96ZM131 82V79H133V82H131ZM136.9 84L135.45 82.6L137.6 80.45L139 81.85L136.9 84Z" fill="#686163"/>
<path d="M90.81 59.5C90.99 58.015 91.125 56.53 91.125 55C91.125 53.47 90.99 51.985 90.81 50.5H98.415C98.775 51.94 99 53.4475 99 55C99 56.5525 98.775 58.06 98.415 59.5M86.8275 72.01C88.1775 69.5125 89.2125 66.8125 89.9325 64H96.57C94.3901 67.7536 90.9318 70.597 86.8275 72.01ZM86.265 59.5H75.735C75.51 58.015 75.375 56.53 75.375 55C75.375 53.47 75.51 51.9625 75.735 50.5H86.265C86.4675 51.9625 86.625 53.47 86.625 55C86.625 56.53 86.4675 58.015 86.265 59.5ZM81 72.91C79.1325 70.21 77.625 67.2175 76.7025 64H85.2975C84.375 67.2175 82.8675 70.21 81 72.91ZM72 46H65.43C67.5874 42.2362 71.0433 39.3883 75.15 37.99C73.8 40.4875 72.7875 43.1875 72 46ZM65.43 64H72C72.7875 66.8125 73.8 69.5125 75.15 72.01C71.0519 70.5962 67.6009 67.7524 65.43 64ZM63.585 59.5C63.225 58.06 63 56.5525 63 55C63 53.4475 63.225 51.94 63.585 50.5H71.19C71.01 51.985 70.875 53.47 70.875 55C70.875 56.53 71.01 58.015 71.19 59.5M81 37.0675C82.8675 39.7675 84.375 42.7825 85.2975 46H76.7025C77.625 42.7825 79.1325 39.7675 81 37.0675ZM96.57 46H89.9325C89.2283 43.2133 88.1855 40.5233 86.8275 37.99C90.9675 39.4075 94.41 42.265 96.57 46ZM81 32.5C68.5575 32.5 58.5 42.625 58.5 55C58.5 60.9674 60.8705 66.6903 65.0901 70.9099C67.1794 72.9992 69.6598 74.6566 72.3896 75.7873C75.1194 76.918 78.0453 77.5 81 77.5C86.9674 77.5 92.6903 75.1295 96.9099 70.9099C101.129 66.6903 103.5 60.9674 103.5 55C103.5 52.0453 102.918 49.1194 101.787 46.3896C100.657 43.6598 98.9992 41.1794 96.9099 39.0901C94.8206 37.0008 92.3402 35.3434 89.6104 34.2127C86.8806 33.082 83.9547 32.5 81 32.5Z" fill="#006696"/>
</svg>
