<svg width="163" height="111" viewBox="0 0 163 111" fill="none" xmlns="http://www.w3.org/2000/svg">
<rect x="2.5" y="12" width="158" height="97" rx="6" fill="#F1F5F9"/>
<rect x="1.5" y="1" width="160" height="109" rx="8" fill="white" stroke="#334155" stroke-width="2"/>
<rect x="68.5" y="6" width="24" height="4" rx="2" fill="#334155"/>
<circle cx="97.5" cy="8" r="2" fill="#334155"/>
<path d="M50.3333 20.2V22.1333H52.0667C52.2 22.1333 52.2667 22.2667 52.2667 22.4L52 23.6667C52 23.7333 51.8667 23.8 51.8 23.8H50.3333V28.6667H48.3333V23.8667H47.2C47.0667 23.8667 47 23.8 47 23.6667V22.4C47 22.2667 47.0667 22.2 47.2 22.2H48.3333V20C48.3333 18.8667 49.2 18 50.3333 18H52.1333C52.2667 18 52.3333 18.0667 52.3333 18.2V19.8C52.3333 19.9333 52.2667 20 52.1333 20H50.5333C50.4 20 50.3333 20.0667 50.3333 20.2Z" stroke="#006696" stroke-miterlimit="10" stroke-linecap="round"/>
<path d="M51.0002 28.6666H47.0002C43.6668 28.6666 42.3335 27.3333 42.3335 23.9999V19.9999C42.3335 16.6666 43.6668 15.3333 47.0002 15.3333H51.0002C54.3335 15.3333 55.6668 16.6666 55.6668 19.9999V23.9999C55.6668 27.3333 54.3335 28.6666 51.0002 28.6666Z" stroke="#006696" stroke-linecap="round" stroke-linejoin="round"/>
<path d="M67.84 19.05V19.98H64.89V22.03H67.19V22.96H64.89V26H63.75V19.05H67.84ZM73.0865 24.58H70.1765L69.6765 26H68.4865L70.9765 19.04H72.2965L74.7865 26H73.5865L73.0865 24.58ZM72.7665 23.65L71.6365 20.42L70.4965 23.65H72.7665ZM75.4891 22.51C75.4891 21.83 75.6458 21.22 75.9591 20.68C76.2791 20.14 76.7091 19.72 77.2491 19.42C77.7958 19.1133 78.3925 18.96 79.0391 18.96C79.7791 18.96 80.4358 19.1433 81.0091 19.51C81.5891 19.87 82.0091 20.3833 82.2691 21.05H80.8991C80.7191 20.6833 80.4691 20.41 80.1491 20.23C79.8291 20.05 79.4591 19.96 79.0391 19.96C78.5791 19.96 78.1691 20.0633 77.8091 20.27C77.4491 20.4767 77.1658 20.7733 76.9591 21.16C76.7591 21.5467 76.6591 21.9967 76.6591 22.51C76.6591 23.0233 76.7591 23.4733 76.9591 23.86C77.1658 24.2467 77.4491 24.5467 77.8091 24.76C78.1691 24.9667 78.5791 25.07 79.0391 25.07C79.4591 25.07 79.8291 24.98 80.1491 24.8C80.4691 24.62 80.7191 24.3467 80.8991 23.98H82.2691C82.0091 24.6467 81.5891 25.16 81.0091 25.52C80.4358 25.88 79.7791 26.06 79.0391 26.06C78.3858 26.06 77.7891 25.91 77.2491 25.61C76.7091 25.3033 76.2791 24.88 75.9591 24.34C75.6458 23.8 75.4891 23.19 75.4891 22.51ZM84.7435 19.97V22.01H87.1435V22.94H84.7435V25.07H87.4435V26H83.6035V19.04H87.4435V19.97H84.7435ZM92.5677 22.43C92.941 22.4967 93.2577 22.6933 93.5177 23.02C93.7777 23.3467 93.9077 23.7167 93.9077 24.13C93.9077 24.4833 93.8143 24.8033 93.6277 25.09C93.4477 25.37 93.1843 25.5933 92.8377 25.76C92.491 25.92 92.0877 26 91.6277 26H88.8477V19.05H91.4977C91.971 19.05 92.3777 19.13 92.7177 19.29C93.0577 19.45 93.3143 19.6667 93.4877 19.94C93.661 20.2067 93.7477 20.5067 93.7477 20.84C93.7477 21.24 93.641 21.5733 93.4277 21.84C93.2143 22.1067 92.9277 22.3033 92.5677 22.43ZM89.9877 21.97H91.3977C91.771 21.97 92.061 21.8867 92.2677 21.72C92.481 21.5467 92.5877 21.3 92.5877 20.98C92.5877 20.6667 92.481 20.4233 92.2677 20.25C92.061 20.07 91.771 19.98 91.3977 19.98H89.9877V21.97ZM91.5277 25.07C91.9143 25.07 92.2177 24.9767 92.4377 24.79C92.6577 24.6033 92.7677 24.3433 92.7677 24.01C92.7677 23.67 92.651 23.4 92.4177 23.2C92.1843 23 91.8743 22.9 91.4877 22.9H89.9877V25.07H91.5277ZM98.3165 26.07C97.6698 26.07 97.0732 25.92 96.5265 25.62C95.9865 25.3133 95.5565 24.89 95.2365 24.35C94.9232 23.8033 94.7665 23.19 94.7665 22.51C94.7665 21.83 94.9232 21.22 95.2365 20.68C95.5565 20.14 95.9865 19.72 96.5265 19.42C97.0732 19.1133 97.6698 18.96 98.3165 18.96C98.9698 18.96 99.5665 19.1133 100.106 19.42C100.653 19.72 101.083 20.14 101.396 20.68C101.71 21.22 101.866 21.83 101.866 22.51C101.866 23.19 101.71 23.8033 101.396 24.35C101.083 24.89 100.653 25.3133 100.106 25.62C99.5665 25.92 98.9698 26.07 98.3165 26.07ZM98.3165 25.08C98.7765 25.08 99.1865 24.9767 99.5465 24.77C99.9065 24.5567 100.186 24.2567 100.386 23.87C100.593 23.4767 100.696 23.0233 100.696 22.51C100.696 21.9967 100.593 21.5467 100.386 21.16C100.186 20.7733 99.9065 20.4767 99.5465 20.27C99.1865 20.0633 98.7765 19.96 98.3165 19.96C97.8565 19.96 97.4465 20.0633 97.0865 20.27C96.7265 20.4767 96.4432 20.7733 96.2365 21.16C96.0365 21.5467 95.9365 21.9967 95.9365 22.51C95.9365 23.0233 96.0365 23.4767 96.2365 23.87C96.4432 24.2567 96.7265 24.5567 97.0865 24.77C97.4465 24.9767 97.8565 25.08 98.3165 25.08ZM106.158 26.07C105.512 26.07 104.915 25.92 104.368 25.62C103.828 25.3133 103.398 24.89 103.078 24.35C102.765 23.8033 102.608 23.19 102.608 22.51C102.608 21.83 102.765 21.22 103.078 20.68C103.398 20.14 103.828 19.72 104.368 19.42C104.915 19.1133 105.512 18.96 106.158 18.96C106.812 18.96 107.408 19.1133 107.948 19.42C108.495 19.72 108.925 20.14 109.238 20.68C109.552 21.22 109.708 21.83 109.708 22.51C109.708 23.19 109.552 23.8033 109.238 24.35C108.925 24.89 108.495 25.3133 107.948 25.62C107.408 25.92 106.812 26.07 106.158 26.07ZM106.158 25.08C106.618 25.08 107.028 24.9767 107.388 24.77C107.748 24.5567 108.028 24.2567 108.228 23.87C108.435 23.4767 108.538 23.0233 108.538 22.51C108.538 21.9967 108.435 21.5467 108.228 21.16C108.028 20.7733 107.748 20.4767 107.388 20.27C107.028 20.0633 106.618 19.96 106.158 19.96C105.698 19.96 105.288 20.0633 104.928 20.27C104.568 20.4767 104.285 20.7733 104.078 21.16C103.878 21.5467 103.778 21.9967 103.778 22.51C103.778 23.0233 103.878 23.4767 104.078 23.87C104.285 24.2567 104.568 24.5567 104.928 24.77C105.288 24.9767 105.698 25.08 106.158 25.08ZM114.66 26L111.97 22.89V26H110.83V19.05H111.97V22.22L114.67 19.05H116.1L113.08 22.53L116.15 26H114.66Z" fill="#006696"/>
<path d="M52.3335 51.3334H45.6668C43.6668 51.3334 42.3335 50.0001 42.3335 48.0001V44.0001C42.3335 42.0001 43.6668 40.6667 45.6668 40.6667H52.3335C54.3335 40.6667 55.6668 42.0001 55.6668 44.0001V48.0001C55.6668 50.0001 54.3335 51.3334 52.3335 51.3334Z" stroke="#006696" stroke-miterlimit="10" stroke-linecap="round" stroke-linejoin="round"/>
<path d="M48.5999 44.3335L50.2666 45.3335C50.8666 45.7335 50.8666 46.3335 50.2666 46.7335L48.5999 47.7335C47.9332 48.1335 47.3999 47.8001 47.3999 47.0668V45.0668C47.3999 44.2001 47.9332 43.9335 48.5999 44.3335Z" stroke="#006696" stroke-miterlimit="10" stroke-linecap="round" stroke-linejoin="round"/>
<path d="M68.9 43.05L66.6 47.48V50H65.46V47.48L63.15 43.05H64.42L66.03 46.46L67.64 43.05H68.9ZM72.9747 50.07C72.328 50.07 71.7314 49.92 71.1847 49.62C70.6447 49.3133 70.2147 48.89 69.8947 48.35C69.5814 47.8033 69.4247 47.19 69.4247 46.51C69.4247 45.83 69.5814 45.22 69.8947 44.68C70.2147 44.14 70.6447 43.72 71.1847 43.42C71.7314 43.1133 72.328 42.96 72.9747 42.96C73.628 42.96 74.2247 43.1133 74.7647 43.42C75.3114 43.72 75.7414 44.14 76.0547 44.68C76.368 45.22 76.5247 45.83 76.5247 46.51C76.5247 47.19 76.368 47.8033 76.0547 48.35C75.7414 48.89 75.3114 49.3133 74.7647 49.62C74.2247 49.92 73.628 50.07 72.9747 50.07ZM72.9747 49.08C73.4347 49.08 73.8447 48.9767 74.2047 48.77C74.5647 48.5567 74.8447 48.2567 75.0447 47.87C75.2514 47.4767 75.3547 47.0233 75.3547 46.51C75.3547 45.9967 75.2514 45.5467 75.0447 45.16C74.8447 44.7733 74.5647 44.4767 74.2047 44.27C73.8447 44.0633 73.4347 43.96 72.9747 43.96C72.5147 43.96 72.1047 44.0633 71.7447 44.27C71.3847 44.4767 71.1014 44.7733 70.8947 45.16C70.6947 45.5467 70.5947 45.9967 70.5947 46.51C70.5947 47.0233 70.6947 47.4767 70.8947 47.87C71.1014 48.2567 71.3847 48.5567 71.7447 48.77C72.1047 48.9767 72.5147 49.08 72.9747 49.08ZM78.7765 43.05V47.48C78.7765 48.0067 78.9132 48.4033 79.1865 48.67C79.4665 48.9367 79.8532 49.07 80.3465 49.07C80.8465 49.07 81.2332 48.9367 81.5065 48.67C81.7865 48.4033 81.9265 48.0067 81.9265 47.48V43.05H83.0665V47.46C83.0665 48.0267 82.9432 48.5067 82.6965 48.9C82.4498 49.2933 82.1198 49.5867 81.7065 49.78C81.2932 49.9733 80.8365 50.07 80.3365 50.07C79.8365 50.07 79.3798 49.9733 78.9665 49.78C78.5598 49.5867 78.2365 49.2933 77.9965 48.9C77.7565 48.5067 77.6365 48.0267 77.6365 47.46V43.05H78.7765ZM89.0408 43.05V43.98H87.1908V50H86.0508V43.98H84.1908V43.05H89.0408ZM91.3253 43.05V47.48C91.3253 48.0067 91.462 48.4033 91.7353 48.67C92.0153 48.9367 92.402 49.07 92.8953 49.07C93.3953 49.07 93.782 48.9367 94.0553 48.67C94.3353 48.4033 94.4753 48.0067 94.4753 47.48V43.05H95.6153V47.46C95.6153 48.0267 95.492 48.5067 95.2453 48.9C94.9986 49.2933 94.6686 49.5867 94.2553 49.78C93.842 49.9733 93.3853 50.07 92.8853 50.07C92.3853 50.07 91.9286 49.9733 91.5153 49.78C91.1086 49.5867 90.7853 49.2933 90.5453 48.9C90.3053 48.5067 90.1853 48.0267 90.1853 47.46V43.05H91.3253ZM100.82 46.43C101.193 46.4967 101.51 46.6933 101.77 47.02C102.03 47.3467 102.16 47.7167 102.16 48.13C102.16 48.4833 102.066 48.8033 101.88 49.09C101.7 49.37 101.436 49.5933 101.09 49.76C100.743 49.92 100.34 50 99.8796 50H97.0996V43.05H99.7496C100.223 43.05 100.63 43.13 100.97 43.29C101.31 43.45 101.566 43.6667 101.74 43.94C101.913 44.2067 102 44.5067 102 44.84C102 45.24 101.893 45.5733 101.68 45.84C101.466 46.1067 101.18 46.3033 100.82 46.43ZM98.2396 45.97H99.6496C100.023 45.97 100.313 45.8867 100.52 45.72C100.733 45.5467 100.84 45.3 100.84 44.98C100.84 44.6667 100.733 44.4233 100.52 44.25C100.313 44.07 100.023 43.98 99.6496 43.98H98.2396V45.97ZM99.7796 49.07C100.166 49.07 100.47 48.9767 100.69 48.79C100.91 48.6033 101.02 48.3433 101.02 48.01C101.02 47.67 100.903 47.4 100.67 47.2C100.436 47 100.126 46.9 99.7396 46.9H98.2396V49.07H99.7796ZM104.538 43.97V46.01H106.938V46.94H104.538V49.07H107.238V50H103.398V43.04H107.238V43.97H104.538Z" fill="#006696"/>
<path d="M47.0002 76.6666H51.0002C54.3335 76.6666 55.6668 75.3333 55.6668 71.9999V67.9999C55.6668 64.6666 54.3335 63.3333 51.0002 63.3333H47.0002C43.6668 63.3333 42.3335 64.6666 42.3335 67.9999V71.9999C42.3335 75.3333 43.6668 76.6666 47.0002 76.6666Z" stroke="#006696" stroke-linecap="round" stroke-linejoin="round"/>
<path d="M48.9998 72.3334C50.2885 72.3334 51.3332 71.2887 51.3332 70.0001C51.3332 68.7114 50.2885 67.6667 48.9998 67.6667C47.7112 67.6667 46.6665 68.7114 46.6665 70.0001C46.6665 71.2887 47.7112 72.3334 48.9998 72.3334Z" stroke="#006696" stroke-linecap="round" stroke-linejoin="round"/>
<path d="M52.7576 66.6666H52.7653" stroke="#006696" stroke-linecap="round" stroke-linejoin="round"/>
<path d="M64.89 67.05V74H63.75V67.05H64.89ZM72.0967 74H70.9567L67.5267 68.81V74H66.3867V67.04H67.5267L70.9567 72.22V67.04H72.0967V74ZM75.8838 74.07C75.4171 74.07 74.9971 73.99 74.6238 73.83C74.2504 73.6633 73.9571 73.43 73.7438 73.13C73.5304 72.83 73.4238 72.48 73.4238 72.08H74.6438C74.6704 72.38 74.7871 72.6267 74.9938 72.82C75.2071 73.0133 75.5038 73.11 75.8838 73.11C76.2771 73.11 76.5838 73.0167 76.8038 72.83C77.0238 72.6367 77.1338 72.39 77.1338 72.09C77.1338 71.8567 77.0638 71.6667 76.9238 71.52C76.7904 71.3733 76.6204 71.26 76.4138 71.18C76.2138 71.1 75.9338 71.0133 75.5738 70.92C75.1204 70.8 74.7504 70.68 74.4638 70.56C74.1838 70.4333 73.9438 70.24 73.7438 69.98C73.5438 69.72 73.4438 69.3733 73.4438 68.94C73.4438 68.54 73.5438 68.19 73.7438 67.89C73.9438 67.59 74.2238 67.36 74.5838 67.2C74.9438 67.04 75.3604 66.96 75.8338 66.96C76.5071 66.96 77.0571 67.13 77.4838 67.47C77.9171 67.8033 78.1571 68.2633 78.2038 68.85H76.9438C76.9238 68.5967 76.8038 68.38 76.5838 68.2C76.3638 68.02 76.0738 67.93 75.7138 67.93C75.3871 67.93 75.1204 68.0133 74.9138 68.18C74.7071 68.3467 74.6038 68.5867 74.6038 68.9C74.6038 69.1133 74.6671 69.29 74.7938 69.43C74.9271 69.5633 75.0938 69.67 75.2938 69.75C75.4938 69.83 75.7671 69.9167 76.1138 70.01C76.5738 70.1367 76.9471 70.2633 77.2338 70.39C77.5271 70.5167 77.7738 70.7133 77.9738 70.98C78.1804 71.24 78.2838 71.59 78.2838 72.03C78.2838 72.3833 78.1871 72.7167 77.9938 73.03C77.8071 73.3433 77.5304 73.5967 77.1638 73.79C76.8038 73.9767 76.3771 74.07 75.8838 74.07ZM84.1189 67.05V67.98H82.2689V74H81.1289V67.98H79.2689V67.05H84.1189ZM89.4634 72.58H86.5534L86.0534 74H84.8634L87.3534 67.04H88.6734L91.1634 74H89.9634L89.4634 72.58ZM89.1434 71.65L88.0134 68.42L86.8734 71.65H89.1434ZM97.2761 69.05C97.0961 68.7033 96.8461 68.4433 96.5261 68.27C96.2061 68.09 95.8361 68 95.4161 68C94.9561 68 94.5461 68.1033 94.1861 68.31C93.8261 68.5167 93.5428 68.81 93.3361 69.19C93.1361 69.57 93.0361 70.01 93.0361 70.51C93.0361 71.01 93.1361 71.4533 93.3361 71.84C93.5428 72.22 93.8261 72.5133 94.1861 72.72C94.5461 72.9267 94.9561 73.03 95.4161 73.03C96.0361 73.03 96.5394 72.8567 96.9261 72.51C97.3128 72.1633 97.5494 71.6933 97.6361 71.1H95.0261V70.19H98.8561V71.08C98.7828 71.62 98.5894 72.1167 98.2761 72.57C97.9694 73.0233 97.5661 73.3867 97.0661 73.66C96.5728 73.9267 96.0228 74.06 95.4161 74.06C94.7628 74.06 94.1661 73.91 93.6261 73.61C93.0861 73.3033 92.6561 72.88 92.3361 72.34C92.0228 71.8 91.8661 71.19 91.8661 70.51C91.8661 69.83 92.0228 69.22 92.3361 68.68C92.6561 68.14 93.0861 67.72 93.6261 67.42C94.1728 67.1133 94.7694 66.96 95.4161 66.96C96.1561 66.96 96.8128 67.1433 97.3861 67.51C97.9661 67.87 98.3861 68.3833 98.6461 69.05H97.2761ZM103.59 74L101.99 71.22H101.12V74H99.9805V67.05H102.38C102.914 67.05 103.364 67.1433 103.73 67.33C104.104 67.5167 104.38 67.7667 104.56 68.08C104.747 68.3933 104.84 68.7433 104.84 69.13C104.84 69.5833 104.707 69.9967 104.44 70.37C104.18 70.7367 103.777 70.9867 103.23 71.12L104.95 74H103.59ZM101.12 70.31H102.38C102.807 70.31 103.127 70.2033 103.34 69.99C103.56 69.7767 103.67 69.49 103.67 69.13C103.67 68.77 103.564 68.49 103.35 68.29C103.137 68.0833 102.814 67.98 102.38 67.98H101.12V70.31ZM110.489 72.58H107.579L107.079 74H105.889L108.379 67.04H109.699L112.189 74H110.989L110.489 72.58ZM110.169 71.65L109.039 68.42L107.899 71.65H110.169ZM120.591 67.05V74H119.451V69.24L117.331 74H116.541L114.411 69.24V74H113.271V67.05H114.501L116.941 72.5L119.371 67.05H120.591Z" fill="#006696"/>
<path d="M54.2453 87.75H43.7547C43.2 87.75 42.75 88.2 42.75 88.7547V99.2453C42.75 99.8 43.2 100.25 43.7547 100.25H54.2453C54.8 100.25 55.25 99.8 55.25 99.2453V88.7547C55.25 88.2 54.8 87.75 54.2453 87.75ZM54.2453 99.25C47.2484 99.2484 43.75 99.2469 43.75 99.2453C43.7516 92.2484 43.7531 88.75 43.7547 88.75C50.7516 88.7516 54.25 88.7531 54.25 88.7547C54.2484 95.7516 54.2469 99.25 54.2453 99.25ZM44.6031 92.4359H46.4578V98.4016H44.6031V92.4359ZM45.5312 91.6203C46.1234 91.6203 46.6062 91.1391 46.6062 90.5453C46.6062 90.4041 46.5784 90.2644 46.5244 90.1339C46.4704 90.0035 46.3912 89.885 46.2914 89.7852C46.1916 89.6853 46.0731 89.6062 45.9426 89.5521C45.8122 89.4981 45.6724 89.4703 45.5312 89.4703C45.3901 89.4703 45.2503 89.4981 45.1199 89.5521C44.9894 89.6062 44.8709 89.6853 44.7711 89.7852C44.6713 89.885 44.5921 90.0035 44.5381 90.1339C44.4841 90.2644 44.4562 90.4041 44.4562 90.5453C44.4547 91.1391 44.9359 91.6203 45.5312 91.6203ZM49.4734 95.45C49.4734 94.6719 49.6219 93.9187 50.5859 93.9187C51.5359 93.9187 51.55 94.8078 51.55 95.5V98.4016H53.4031V95.1297C53.4031 93.5234 53.0562 92.2875 51.1797 92.2875C50.2781 92.2875 49.6734 92.7828 49.425 93.2516H49.4V92.4359H47.6203V98.4016H49.4734V95.45Z" fill="#006696"/>
<path d="M64.89 97.08H67.24V98H63.75V91.05H64.89V97.08ZM69.3334 91.05V98H68.1934V91.05H69.3334ZM76.5401 98H75.4001L71.9701 92.81V98H70.8301V91.04H71.9701L75.4001 96.22V91.04H76.5401V98ZM81.8671 98L79.1771 94.89V98H78.0371V91.05H79.1771V94.22L81.8771 91.05H83.3071L80.2871 94.53L83.3571 98H81.8671ZM85.5052 91.97V94.01H87.9052V94.94H85.5052V97.07H88.2052V98H84.3652V91.04H88.2052V91.97H85.5052ZM91.8794 91.05C92.6194 91.05 93.266 91.1933 93.8194 91.48C94.3794 91.76 94.8094 92.1667 95.1094 92.7C95.416 93.2267 95.5694 93.8433 95.5694 94.55C95.5694 95.2567 95.416 95.87 95.1094 96.39C94.8094 96.91 94.3794 97.31 93.8194 97.59C93.266 97.8633 92.6194 98 91.8794 98H89.6094V91.05H91.8794ZM91.8794 97.07C92.6927 97.07 93.316 96.85 93.7494 96.41C94.1827 95.97 94.3994 95.35 94.3994 94.55C94.3994 93.7433 94.1827 93.1133 93.7494 92.66C93.316 92.2067 92.6927 91.98 91.8794 91.98H90.7494V97.07H91.8794ZM97.8392 91.05V98H96.6992V91.05H97.8392ZM105.046 98H103.906L100.476 92.81V98H99.3359V91.04H100.476L103.906 96.22V91.04H105.046V98Z" fill="#006696"/>
</svg>
