<svg width="163" height="111" viewBox="0 0 163 111" fill="none" xmlns="http://www.w3.org/2000/svg">
<rect x="2.5" y="12" width="158" height="97" rx="6" fill="#F1F5F9"/>
<rect x="1.5" y="1" width="160" height="109" rx="8" fill="white" stroke="#334155" stroke-width="2"/>
<rect x="68.5" y="6" width="24" height="4" rx="2" fill="#334155"/>
<circle cx="97.5" cy="8" r="2" fill="#334155"/>
<path d="M42.6667 29.75V32.1667H44.8333C45 32.1667 45.0833 32.3333 45.0833 32.5L44.75 34.0833C44.75 34.1667 44.5833 34.25 44.5 34.25H42.6667V40.3333H40.1667V34.3333H38.75C38.5833 34.3333 38.5 34.25 38.5 34.0833V32.5C38.5 32.3333 38.5833 32.25 38.75 32.25H40.1667V29.5C40.1667 28.0833 41.25 27 42.6667 27H44.9167C45.0833 27 45.1667 27.0833 45.1667 27.25V29.25C45.1667 29.4167 45.0833 29.5 44.9167 29.5H42.9167C42.75 29.5 42.6667 29.5833 42.6667 29.75Z" stroke="#006696" stroke-miterlimit="10" stroke-linecap="round"/>
<path d="M43.4998 40.3334H38.4998C34.3332 40.3334 32.6665 38.6667 32.6665 34.5001V29.5001C32.6665 25.3334 34.3332 23.6667 38.4998 23.6667H43.4998C47.6665 23.6667 49.3332 25.3334 49.3332 29.5001V34.5001C49.3332 38.6667 47.6665 40.3334 43.4998 40.3334Z" stroke="#006696" stroke-linecap="round" stroke-linejoin="round"/>
<path d="M66.808 27.66V28.776H63.268V31.236H66.028V32.352H63.268V36H61.9V27.66H66.808ZM73.1038 34.296H69.6118L69.0118 36H67.5838L70.5718 27.648H72.1558L75.1438 36H73.7038L73.1038 34.296ZM72.7198 33.18L71.3638 29.304L69.9958 33.18H72.7198ZM75.987 31.812C75.987 30.996 76.175 30.264 76.551 29.616C76.935 28.968 77.451 28.464 78.099 28.104C78.755 27.736 79.471 27.552 80.247 27.552C81.135 27.552 81.923 27.772 82.611 28.212C83.307 28.644 83.811 29.26 84.123 30.06H82.479C82.263 29.62 81.963 29.292 81.579 29.076C81.195 28.86 80.751 28.752 80.247 28.752C79.695 28.752 79.203 28.876 78.771 29.124C78.339 29.372 77.999 29.728 77.751 30.192C77.511 30.656 77.391 31.196 77.391 31.812C77.391 32.428 77.511 32.968 77.751 33.432C77.999 33.896 78.339 34.256 78.771 34.512C79.203 34.76 79.695 34.884 80.247 34.884C80.751 34.884 81.195 34.776 81.579 34.56C81.963 34.344 82.263 34.016 82.479 33.576H84.123C83.811 34.376 83.307 34.992 82.611 35.424C81.923 35.856 81.135 36.072 80.247 36.072C79.463 36.072 78.747 35.892 78.099 35.532C77.451 35.164 76.935 34.656 76.551 34.008C76.175 33.36 75.987 32.628 75.987 31.812ZM87.0922 28.764V31.212H89.9722V32.328H87.0922V34.884H90.3322V36H85.7242V27.648H90.3322V28.764H87.0922ZM96.4812 31.716C96.9292 31.796 97.3092 32.032 97.6212 32.424C97.9332 32.816 98.0892 33.26 98.0892 33.756C98.0892 34.18 97.9772 34.564 97.7532 34.908C97.5372 35.244 97.2212 35.512 96.8052 35.712C96.3892 35.904 95.9052 36 95.3532 36H92.0172V27.66H95.1972C95.7652 27.66 96.2532 27.756 96.6612 27.948C97.0692 28.14 97.3772 28.4 97.5852 28.728C97.7932 29.048 97.8972 29.408 97.8972 29.808C97.8972 30.288 97.7692 30.688 97.5132 31.008C97.2572 31.328 96.9132 31.564 96.4812 31.716ZM93.3852 31.164H95.0772C95.5252 31.164 95.8732 31.064 96.1212 30.864C96.3772 30.656 96.5052 30.36 96.5052 29.976C96.5052 29.6 96.3772 29.308 96.1212 29.1C95.8732 28.884 95.5252 28.776 95.0772 28.776H93.3852V31.164ZM95.2332 34.884C95.6972 34.884 96.0612 34.772 96.3252 34.548C96.5892 34.324 96.7212 34.012 96.7212 33.612C96.7212 33.204 96.5812 32.88 96.3012 32.64C96.0212 32.4 95.6492 32.28 95.1852 32.28H93.3852V34.884H95.2332ZM103.38 36.084C102.604 36.084 101.888 35.904 101.232 35.544C100.584 35.176 100.068 34.668 99.6838 34.02C99.3078 33.364 99.1198 32.628 99.1198 31.812C99.1198 30.996 99.3078 30.264 99.6838 29.616C100.068 28.968 100.584 28.464 101.232 28.104C101.888 27.736 102.604 27.552 103.38 27.552C104.164 27.552 104.88 27.736 105.528 28.104C106.184 28.464 106.7 28.968 107.076 29.616C107.452 30.264 107.64 30.996 107.64 31.812C107.64 32.628 107.452 33.364 107.076 34.02C106.7 34.668 106.184 35.176 105.528 35.544C104.88 35.904 104.164 36.084 103.38 36.084ZM103.38 34.896C103.932 34.896 104.424 34.772 104.856 34.524C105.288 34.268 105.624 33.908 105.864 33.444C106.112 32.972 106.236 32.428 106.236 31.812C106.236 31.196 106.112 30.656 105.864 30.192C105.624 29.728 105.288 29.372 104.856 29.124C104.424 28.876 103.932 28.752 103.38 28.752C102.828 28.752 102.336 28.876 101.904 29.124C101.472 29.372 101.132 29.728 100.884 30.192C100.644 30.656 100.524 31.196 100.524 31.812C100.524 32.428 100.644 32.972 100.884 33.444C101.132 33.908 101.472 34.268 101.904 34.524C102.336 34.772 102.828 34.896 103.38 34.896ZM112.79 36.084C112.014 36.084 111.298 35.904 110.642 35.544C109.994 35.176 109.478 34.668 109.094 34.02C108.718 33.364 108.53 32.628 108.53 31.812C108.53 30.996 108.718 30.264 109.094 29.616C109.478 28.968 109.994 28.464 110.642 28.104C111.298 27.736 112.014 27.552 112.79 27.552C113.574 27.552 114.29 27.736 114.938 28.104C115.594 28.464 116.11 28.968 116.486 29.616C116.862 30.264 117.05 30.996 117.05 31.812C117.05 32.628 116.862 33.364 116.486 34.02C116.11 34.668 115.594 35.176 114.938 35.544C114.29 35.904 113.574 36.084 112.79 36.084ZM112.79 34.896C113.342 34.896 113.834 34.772 114.266 34.524C114.698 34.268 115.034 33.908 115.274 33.444C115.522 32.972 115.646 32.428 115.646 31.812C115.646 31.196 115.522 30.656 115.274 30.192C115.034 29.728 114.698 29.372 114.266 29.124C113.834 28.876 113.342 28.752 112.79 28.752C112.238 28.752 111.746 28.876 111.314 29.124C110.882 29.372 110.542 29.728 110.294 30.192C110.054 30.656 109.934 31.196 109.934 31.812C109.934 32.428 110.054 32.972 110.294 33.444C110.542 33.908 110.882 34.268 111.314 34.524C111.746 34.772 112.238 34.896 112.79 34.896ZM122.992 36L119.764 32.268V36H118.396V27.66H119.764V31.464L123.004 27.66H124.72L121.096 31.836L124.78 36H122.992Z" fill="#006696"/>
<path d="M45.1665 64.6666H36.8332C34.3332 64.6666 32.6665 62.9999 32.6665 60.4999V55.4999C32.6665 52.9999 34.3332 51.3333 36.8332 51.3333H45.1665C47.6665 51.3333 49.3332 52.9999 49.3332 55.4999V60.4999C49.3332 62.9999 47.6665 64.6666 45.1665 64.6666Z" stroke="#006696" stroke-miterlimit="10" stroke-linecap="round" stroke-linejoin="round"/>
<path d="M40.5 55.9168L42.5833 57.1668C43.3333 57.6668 43.3333 58.4168 42.5833 58.9168L40.5 60.1668C39.6667 60.6668 39 60.2501 39 59.3334V56.8334C39 55.7501 39.6667 55.4168 40.5 55.9168Z" stroke="#006696" stroke-miterlimit="10" stroke-linecap="round" stroke-linejoin="round"/>
<path d="M68.08 53.66L65.32 58.976V62H63.952V58.976L61.18 53.66H62.704L64.636 57.752L66.568 53.66H68.08ZM72.9696 62.084C72.1936 62.084 71.4776 61.904 70.8216 61.544C70.1736 61.176 69.6576 60.668 69.2736 60.02C68.8976 59.364 68.7096 58.628 68.7096 57.812C68.7096 56.996 68.8976 56.264 69.2736 55.616C69.6576 54.968 70.1736 54.464 70.8216 54.104C71.4776 53.736 72.1936 53.552 72.9696 53.552C73.7536 53.552 74.4696 53.736 75.1176 54.104C75.7736 54.464 76.2896 54.968 76.6656 55.616C77.0416 56.264 77.2296 56.996 77.2296 57.812C77.2296 58.628 77.0416 59.364 76.6656 60.02C76.2896 60.668 75.7736 61.176 75.1176 61.544C74.4696 61.904 73.7536 62.084 72.9696 62.084ZM72.9696 60.896C73.5216 60.896 74.0136 60.772 74.4456 60.524C74.8776 60.268 75.2136 59.908 75.4536 59.444C75.7016 58.972 75.8256 58.428 75.8256 57.812C75.8256 57.196 75.7016 56.656 75.4536 56.192C75.2136 55.728 74.8776 55.372 74.4456 55.124C74.0136 54.876 73.5216 54.752 72.9696 54.752C72.4176 54.752 71.9256 54.876 71.4936 55.124C71.0616 55.372 70.7216 55.728 70.4736 56.192C70.2336 56.656 70.1136 57.196 70.1136 57.812C70.1136 58.428 70.2336 58.972 70.4736 59.444C70.7216 59.908 71.0616 60.268 71.4936 60.524C71.9256 60.772 72.4176 60.896 72.9696 60.896ZM79.9318 53.66V58.976C79.9318 59.608 80.0958 60.084 80.4238 60.404C80.7598 60.724 81.2238 60.884 81.8158 60.884C82.4158 60.884 82.8798 60.724 83.2078 60.404C83.5438 60.084 83.7118 59.608 83.7118 58.976V53.66H85.0798V58.952C85.0798 59.632 84.9318 60.208 84.6358 60.68C84.3398 61.152 83.9438 61.504 83.4478 61.736C82.9518 61.968 82.4038 62.084 81.8038 62.084C81.2038 62.084 80.6558 61.968 80.1598 61.736C79.6718 61.504 79.2838 61.152 78.9958 60.68C78.7078 60.208 78.5638 59.632 78.5638 58.952V53.66H79.9318ZM92.2489 53.66V54.776H90.0289V62H88.6609V54.776H86.4289V53.66H92.2489ZM94.9904 53.66V58.976C94.9904 59.608 95.1544 60.084 95.4824 60.404C95.8184 60.724 96.2824 60.884 96.8744 60.884C97.4744 60.884 97.9384 60.724 98.2664 60.404C98.6024 60.084 98.7704 59.608 98.7704 58.976V53.66H100.138V58.952C100.138 59.632 99.9904 60.208 99.6944 60.68C99.3984 61.152 99.0024 61.504 98.5064 61.736C98.0104 61.968 97.4624 62.084 96.8624 62.084C96.2624 62.084 95.7144 61.968 95.2184 61.736C94.7304 61.504 94.3424 61.152 94.0544 60.68C93.7664 60.208 93.6224 59.632 93.6224 58.952V53.66H94.9904ZM106.384 57.716C106.832 57.796 107.212 58.032 107.524 58.424C107.836 58.816 107.992 59.26 107.992 59.756C107.992 60.18 107.88 60.564 107.656 60.908C107.44 61.244 107.124 61.512 106.708 61.712C106.292 61.904 105.808 62 105.256 62H101.92V53.66H105.1C105.668 53.66 106.156 53.756 106.564 53.948C106.972 54.14 107.28 54.4 107.488 54.728C107.696 55.048 107.8 55.408 107.8 55.808C107.8 56.288 107.672 56.688 107.416 57.008C107.16 57.328 106.816 57.564 106.384 57.716ZM103.288 57.164H104.98C105.428 57.164 105.776 57.064 106.024 56.864C106.28 56.656 106.408 56.36 106.408 55.976C106.408 55.6 106.28 55.308 106.024 55.1C105.776 54.884 105.428 54.776 104.98 54.776H103.288V57.164ZM105.136 60.884C105.6 60.884 105.964 60.772 106.228 60.548C106.492 60.324 106.624 60.012 106.624 59.612C106.624 59.204 106.484 58.88 106.204 58.64C105.924 58.4 105.552 58.28 105.088 58.28H103.288V60.884H105.136ZM110.846 54.764V57.212H113.726V58.328H110.846V60.884H114.086V62H109.478V53.648H114.086V54.764H110.846Z" fill="#006696"/>
<path d="M38.4998 92.3334H43.4998C47.6665 92.3334 49.3332 90.6667 49.3332 86.5001V81.5001C49.3332 77.3334 47.6665 75.6667 43.4998 75.6667H38.4998C34.3332 75.6667 32.6665 77.3334 32.6665 81.5001V86.5001C32.6665 90.6667 34.3332 92.3334 38.4998 92.3334Z" stroke="#006696" stroke-linecap="round" stroke-linejoin="round"/>
<path d="M41.0002 86.9166C42.611 86.9166 43.9168 85.6107 43.9168 83.9999C43.9168 82.3891 42.611 81.0833 41.0002 81.0833C39.3893 81.0833 38.0835 82.3891 38.0835 83.9999C38.0835 85.6107 39.3893 86.9166 41.0002 86.9166Z" stroke="#006696" stroke-linecap="round" stroke-linejoin="round"/>
<path d="M45.6966 79.8334H45.7062" stroke="#006696" stroke-linecap="round" stroke-linejoin="round"/>
<path d="M63.268 79.66V88H61.9V79.66H63.268ZM71.9161 88H70.5481L66.4321 81.772V88H65.0641V79.648H66.4321L70.5481 85.864V79.648H71.9161V88ZM76.4605 88.084C75.9005 88.084 75.3965 87.988 74.9485 87.796C74.5005 87.596 74.1485 87.316 73.8925 86.956C73.6365 86.596 73.5085 86.176 73.5085 85.696H74.9725C75.0045 86.056 75.1445 86.352 75.3925 86.584C75.6485 86.816 76.0045 86.932 76.4605 86.932C76.9325 86.932 77.3005 86.82 77.5645 86.596C77.8285 86.364 77.9605 86.068 77.9605 85.708C77.9605 85.428 77.8765 85.2 77.7085 85.024C77.5485 84.848 77.3445 84.712 77.0965 84.616C76.8565 84.52 76.5205 84.416 76.0885 84.304C75.5445 84.16 75.1005 84.016 74.7565 83.872C74.4205 83.72 74.1325 83.488 73.8925 83.176C73.6525 82.864 73.5325 82.448 73.5325 81.928C73.5325 81.448 73.6525 81.028 73.8925 80.668C74.1325 80.308 74.4685 80.032 74.9005 79.84C75.3325 79.648 75.8325 79.552 76.4005 79.552C77.2085 79.552 77.8685 79.756 78.3805 80.164C78.9005 80.564 79.1885 81.116 79.2445 81.82H77.7325C77.7085 81.516 77.5645 81.256 77.3005 81.04C77.0365 80.824 76.6885 80.716 76.2565 80.716C75.8645 80.716 75.5445 80.816 75.2965 81.016C75.0485 81.216 74.9245 81.504 74.9245 81.88C74.9245 82.136 75.0005 82.348 75.1525 82.516C75.3125 82.676 75.5125 82.804 75.7525 82.9C75.9925 82.996 76.3205 83.1 76.7365 83.212C77.2885 83.364 77.7365 83.516 78.0805 83.668C78.4325 83.82 78.7285 84.056 78.9685 84.376C79.2165 84.688 79.3405 85.108 79.3405 85.636C79.3405 86.06 79.2245 86.46 78.9925 86.836C78.7685 87.212 78.4365 87.516 77.9965 87.748C77.5645 87.972 77.0525 88.084 76.4605 88.084ZM86.3427 79.66V80.776H84.1227V88H82.7547V80.776H80.5227V79.66H86.3427ZM92.7561 86.296H89.2641L88.6641 88H87.2361L90.2241 79.648H91.8081L94.7961 88H93.3561L92.7561 86.296ZM92.3721 85.18L91.0161 81.304L89.6481 85.18H92.3721ZM102.131 82.06C101.915 81.644 101.615 81.332 101.231 81.124C100.847 80.908 100.403 80.8 99.8993 80.8C99.3473 80.8 98.8553 80.924 98.4233 81.172C97.9913 81.42 97.6513 81.772 97.4033 82.228C97.1633 82.684 97.0433 83.212 97.0433 83.812C97.0433 84.412 97.1633 84.944 97.4033 85.408C97.6513 85.864 97.9913 86.216 98.4233 86.464C98.8553 86.712 99.3473 86.836 99.8993 86.836C100.643 86.836 101.247 86.628 101.711 86.212C102.175 85.796 102.459 85.232 102.563 84.52H99.4313V83.428H104.027V84.496C103.939 85.144 103.707 85.74 103.331 86.284C102.963 86.828 102.479 87.264 101.879 87.592C101.287 87.912 100.627 88.072 99.8993 88.072C99.1153 88.072 98.3993 87.892 97.7513 87.532C97.1033 87.164 96.5873 86.656 96.2033 86.008C95.8273 85.36 95.6393 84.628 95.6393 83.812C95.6393 82.996 95.8273 82.264 96.2033 81.616C96.5873 80.968 97.1033 80.464 97.7513 80.104C98.4073 79.736 99.1233 79.552 99.8993 79.552C100.787 79.552 101.575 79.772 102.263 80.212C102.959 80.644 103.463 81.26 103.775 82.06H102.131ZM109.709 88L107.789 84.664H106.745V88H105.377V79.66H108.257C108.897 79.66 109.437 79.772 109.877 79.996C110.325 80.22 110.657 80.52 110.873 80.896C111.097 81.272 111.209 81.692 111.209 82.156C111.209 82.7 111.049 83.196 110.729 83.644C110.417 84.084 109.933 84.384 109.277 84.544L111.341 88H109.709ZM106.745 83.572H108.257C108.769 83.572 109.153 83.444 109.409 83.188C109.673 82.932 109.805 82.588 109.805 82.156C109.805 81.724 109.677 81.388 109.421 81.148C109.165 80.9 108.777 80.776 108.257 80.776H106.745V83.572ZM117.987 86.296H114.495L113.895 88H112.467L115.455 79.648H117.039L120.027 88H118.587L117.987 86.296ZM117.603 85.18L116.247 81.304L114.879 85.18H117.603ZM130.11 79.66V88H128.742V82.288L126.198 88H125.25L122.694 82.288V88H121.326V79.66H122.802L125.73 86.2L128.646 79.66H130.11Z" fill="#006696"/>
</svg>
