<svg width="163" height="111" viewBox="0 0 163 111" fill="none" xmlns="http://www.w3.org/2000/svg">
<rect x="2.5" y="12" width="158" height="97" rx="6" fill="#F1F5F9"/>
<rect x="1.5" y="1" width="160" height="109" rx="8" fill="white" stroke="#334155" stroke-width="2"/>
<rect x="68.5" y="6" width="24" height="4" rx="2" fill="#334155"/>
<circle cx="97.5" cy="8" r="2" fill="#334155"/>
<path d="M93.25 71.875C93.25 68.1468 88.2122 65.125 82 65.125C75.7878 65.125 70.75 68.1468 70.75 71.875M102.25 65.125C102.25 62.3575 99.4735 59.9793 95.5 58.9375M61.75 65.125C61.75 62.3575 64.5265 59.9793 68.5 58.9375M95.5 49.906C96.1666 49.3167 96.7101 48.6015 97.0993 47.8014C97.4884 47.0013 97.7156 46.1321 97.7677 45.2439C97.8197 44.3557 97.6957 43.466 97.4027 42.6259C97.1097 41.7858 96.6535 41.012 96.0603 40.3488C95.4672 39.6856 94.7488 39.1463 93.9464 38.7618C93.1441 38.3773 92.2736 38.1552 91.3851 38.1083C90.4966 38.0614 89.6077 38.1906 88.7693 38.4884C87.9309 38.7863 87.1597 39.247 86.5 39.844M68.5 49.906C67.1777 48.7094 66.3827 47.038 66.2886 45.2571C66.1946 43.4761 66.8092 41.7304 67.9982 40.4011C69.1871 39.0718 70.8538 38.2671 72.6342 38.1628C74.4145 38.0584 76.1639 38.6628 77.5 39.844M82 58.375C80.2098 58.375 78.4929 57.6639 77.227 56.398C75.9612 55.1321 75.25 53.4152 75.25 51.625C75.25 49.8348 75.9612 48.1179 77.227 46.8521C78.4929 45.5862 80.2098 44.875 82 44.875C83.7902 44.875 85.5071 45.5862 86.773 46.8521C88.0388 48.1179 88.75 49.8348 88.75 51.625C88.75 53.4152 88.0388 55.1321 86.773 56.398C85.5071 57.6639 83.7902 58.375 82 58.375Z" stroke="#006696" stroke-width="1.5" stroke-linecap="round" stroke-linejoin="round"/>
</svg>
